<svg width="26" height="26" viewBox="0 0 26 26" fill="none" xmlns="http://www.w3.org/2000/svg">
<path d="M13.0001 2.80005C10.9827 2.80005 9.01062 3.39827 7.33324 4.51906C5.65586 5.63985 4.3485 7.23288 3.57648 9.09668C2.80447 10.9605 2.60247 13.0114 2.99604 14.99C3.38961 16.9686 4.36107 18.786 5.78756 20.2125C7.21406 21.639 9.03153 22.6105 11.0101 23.0041C12.9887 23.3976 15.0396 23.1956 16.9034 22.4236C18.7672 21.6516 20.3603 20.3442 21.481 18.6669C22.6018 16.9895 23.2001 15.0174 23.2001 13.0001C23.2012 11.6603 22.9381 10.3334 22.4259 9.09538C21.9137 7.85736 21.1624 6.73248 20.215 5.7851C19.2676 4.83772 18.1428 4.08644 16.9047 3.57423C15.6667 3.06202 14.3398 2.79895 13.0001 2.80005ZM13.0001 20.8001C11.4574 20.8001 9.94931 20.3426 8.66661 19.4855C7.3839 18.6284 6.38416 17.4102 5.79379 15.985C5.20343 14.5597 5.04896 12.9914 5.34993 11.4783C5.65089 9.9653 6.39377 8.57547 7.48462 7.48462C8.57547 6.39377 9.9653 5.65089 11.4783 5.34993C12.9914 5.04896 14.5597 5.20343 15.985 5.79379C17.4102 6.38416 18.6284 7.3839 19.4855 8.6666C20.3426 9.94931 20.8001 11.4574 20.8001 13.0001C20.8021 14.0249 20.6018 15.0401 20.2105 15.9874C19.8192 16.9347 19.2448 17.7954 18.5201 18.5201C17.7954 19.2448 16.9347 19.8192 15.9874 20.2105C15.0401 20.6018 14.0249 20.8021 13.0001 20.8001ZM12.7001 7.90005C12.4765 7.68098 12.1755 7.55897 11.8625 7.56055C11.5495 7.56213 11.2498 7.68717 11.0285 7.90849C10.8072 8.12982 10.6821 8.42954 10.6806 8.74254C10.679 9.05553 10.801 9.3565 11.0201 9.58005L14.4401 13.0001L11.0201 16.4201C10.801 16.6436 10.679 16.9446 10.6806 17.2576C10.6821 17.5706 10.8072 17.8703 11.0285 18.0916C11.2498 18.3129 11.5495 18.438 11.8625 18.4396C12.1755 18.4411 12.4765 18.3191 12.7001 18.1001L16.1201 14.6801C16.348 14.4574 16.5291 14.1914 16.6528 13.8978C16.7764 13.6041 16.8401 13.2887 16.8401 12.9701C16.8401 12.6514 16.7764 12.336 16.6528 12.0423C16.5291 11.7487 16.348 11.4827 16.1201 11.2601L12.7001 7.90005Z" fill="white"/>
</svg>
