<svg width="25" height="24" viewBox="0 0 25 24" fill="none" xmlns="http://www.w3.org/2000/svg">
<path d="M12.6667 22C7.14375 22 2.66675 17.523 2.66675 12C2.66675 6.477 7.14375 2 12.6667 2C18.1897 2 22.6667 6.477 22.6667 12C22.6667 17.523 18.1897 22 12.6667 22ZM12.6667 20C14.7885 20 16.8233 19.1571 18.3236 17.6569C19.8239 16.1566 20.6667 14.1217 20.6667 12C20.6667 9.87827 19.8239 7.84344 18.3236 6.34315C16.8233 4.84285 14.7885 4 12.6667 4C10.545 4 8.51018 4.84285 7.00989 6.34315C5.5096 7.84344 4.66675 9.87827 4.66675 12C4.66675 14.1217 5.5096 16.1566 7.00989 17.6569C8.51018 19.1571 10.545 20 12.6667 20ZM10.7167 11H15.6667V13H10.7167C10.8034 13.4253 10.9993 13.8208 11.2851 14.1474C11.5709 14.4741 11.9369 14.7207 12.347 14.8629C12.7571 15.0052 13.1971 15.0383 13.6239 14.9589C14.0506 14.8794 14.4493 14.6903 14.7807 14.41L16.4807 15.543C15.8966 16.1789 15.1418 16.6333 14.3064 16.852C13.4711 17.0707 12.5905 17.0445 11.7696 16.7764C10.9488 16.5083 10.2224 16.0097 9.6772 15.3401C9.13198 14.6705 8.79093 13.8581 8.69475 13H7.66675V11H8.69375C8.7896 10.1414 9.13056 9.32861 9.67591 8.6586C10.2213 7.98859 10.9479 7.48972 11.7692 7.22157C12.5904 6.95342 13.4714 6.92732 14.3071 7.14639C15.1428 7.36546 15.8977 7.82045 16.4817 8.457L14.7807 9.59C14.4493 9.30972 14.0506 9.12056 13.6239 9.04114C13.1971 8.96172 12.7571 8.99478 12.347 9.13706C11.9369 9.27933 11.5709 9.52593 11.2851 9.85258C10.9993 10.1792 10.8034 10.5747 10.7167 11Z" fill="white"/>
</svg>
