<svg width="22" height="16" viewBox="0 0 22 16" fill="none" xmlns="http://www.w3.org/2000/svg">
<path d="M10.3432 2H11.8432C12.2932 2 12.5932 1.7 12.5932 1.25C12.5932 0.8 12.2932 0.5 11.8432 0.5H10.3432C9.89316 0.5 9.59316 0.8 9.59316 1.25C9.59316 1.7 9.89316 2 10.3432 2ZM21.5182 11.375C21.3682 11.15 21.0682 11 20.8432 11H20.0182C19.6432 7.7 16.9432 4.4 13.4932 3.35C11.9182 2.825 10.1932 2.825 8.61816 3.35C5.24316 4.4 2.46816 7.7 2.16816 11H1.34316C1.11816 11 0.818164 11.15 0.668164 11.375C0.518164 11.6 0.518164 11.9 0.668164 12.125C1.71816 14.225 3.81816 15.5 6.21816 15.5H16.0432C18.3682 15.5 20.5432 14.225 21.5932 12.05C21.5932 11.825 21.5932 11.6 21.5182 11.375ZM9.06816 4.775C10.3432 4.4 11.7682 4.4 13.0432 4.775C15.8182 5.6 18.1432 8.3 18.5182 11H3.66816C4.04316 8.3 6.29316 5.675 9.06816 4.775ZM15.9682 14H6.21816C4.86816 14 3.66816 13.475 2.76816 12.5H19.4182C18.5182 13.475 17.3182 14 15.9682 14Z" fill="white"/>
</svg>
