<svg width="25" height="25" viewBox="0 0 25 25" fill="none" xmlns="http://www.w3.org/2000/svg">
<path d="M17.5351 19.04C17.2977 19.04 17.0657 18.9696 16.8684 18.8378C16.671 18.7059 16.5172 18.5185 16.4264 18.2992C16.3356 18.0799 16.3118 17.8387 16.3581 17.6059C16.4044 17.3731 16.5187 17.1593 16.6865 16.9915C16.8544 16.8236 17.0682 16.7094 17.301 16.6631C17.5337 16.6168 17.775 16.6405 17.9943 16.7313C18.2136 16.8222 18.401 16.976 18.5328 17.1733C18.6647 17.3707 18.7351 17.6027 18.7351 17.84C18.7351 18.1583 18.6086 18.4635 18.3836 18.6885C18.1586 18.9136 17.8533 19.04 17.5351 19.04ZM22.1351 16.62C22.1156 17.4497 21.9602 18.2706 21.6751 19.05C21.4208 19.7169 21.0251 20.3207 20.5151 20.82C20.0199 21.3326 19.4146 21.7258 18.7451 21.97C17.9677 22.2638 17.1459 22.4228 16.3151 22.44C15.2551 22.5 14.9151 22.5 12.1951 22.5C9.47507 22.5 9.13507 22.5 8.07507 22.44C7.24422 22.4228 6.42241 22.2638 5.64507 21.97C4.97674 21.7234 4.372 21.3304 3.87507 20.82C3.36249 20.3248 2.96924 19.7196 2.72507 19.05C2.43123 18.2727 2.27228 17.4508 2.25507 16.62C2.19507 15.56 2.19507 15.22 2.19507 12.5C2.19507 9.78 2.19507 9.44 2.25507 8.38C2.27228 7.54915 2.43123 6.72734 2.72507 5.95C2.96924 5.28044 3.36249 4.67518 3.87507 4.18C4.372 3.66956 4.97674 3.27665 5.64507 3.03C6.42241 2.73616 7.24422 2.57721 8.07507 2.56C9.13507 2.5 9.47507 2.5 12.1951 2.5C14.9151 2.5 15.2551 2.5 16.3151 2.56C17.1459 2.57721 17.9677 2.73616 18.7451 3.03C19.4146 3.27418 20.0199 3.66743 20.5151 4.18C21.0273 4.67742 21.4234 5.28181 21.6751 5.95C21.9602 6.7294 22.1156 7.5503 22.1351 8.38C22.1351 9.44 22.1951 9.78 22.1951 12.5C22.1951 15.22 22.1951 15.56 22.1351 16.62ZM20.3351 8.5C20.3278 7.86523 20.2128 7.2363 19.9951 6.64C19.8354 6.20481 19.5789 5.81158 19.2451 5.49C18.9207 5.15949 18.5283 4.90357 18.0951 4.74C17.4988 4.52225 16.8698 4.40728 16.2351 4.4C15.2351 4.35 14.8651 4.34 12.2351 4.34C9.60507 4.34 9.23507 4.34 8.23507 4.4C7.57596 4.38766 6.91966 4.48915 6.29507 4.7C5.88085 4.87192 5.50642 5.12721 5.19507 5.45C4.86316 5.77125 4.60991 6.16481 4.45507 6.6C4.21092 7.20485 4.07551 7.84806 4.05507 8.5C4.05507 9.5 3.99507 9.87 3.99507 12.5C3.99507 15.13 3.99507 15.5 4.05507 16.5C4.05955 17.1489 4.17802 17.7921 4.40507 18.4C4.58112 18.8221 4.85133 19.1983 5.19507 19.5C5.49888 19.8438 5.87436 20.1169 6.29507 20.3C6.90462 20.52 7.54707 20.6349 8.19507 20.64C9.19507 20.64 9.56507 20.7 12.1951 20.7C14.8251 20.7 15.1951 20.7 16.1951 20.64C16.8298 20.6327 17.4588 20.5178 18.0551 20.3C18.5095 20.1313 18.9174 19.8572 19.2451 19.5C19.5728 19.1928 19.8288 18.8173 19.9951 18.4C20.2173 17.7911 20.3324 17.1482 20.3351 16.5C20.3851 15.5 20.3951 15.13 20.3951 12.5C20.3951 9.87 20.3851 9.5 20.3351 8.5ZM12.1951 17.63C11.1809 17.628 10.19 17.3255 9.34772 16.7606C8.50542 16.1957 7.84945 15.3938 7.4627 14.4562C7.07596 13.5187 6.97579 12.4875 7.17486 11.4931C7.37393 10.4986 7.8633 9.58546 8.58114 8.86902C9.29898 8.15258 10.2131 7.66498 11.2079 7.46785C12.2028 7.27072 13.2337 7.37289 14.1705 7.76146C15.1073 8.15003 15.9079 8.80756 16.4712 9.65097C17.0344 10.4944 17.3351 11.4858 17.3351 12.5C17.3364 13.1749 17.2043 13.8434 16.9463 14.467C16.6883 15.0907 16.3096 15.6572 15.8319 16.1339C15.3542 16.6107 14.787 16.9883 14.1629 17.2451C13.5387 17.5018 12.87 17.6326 12.1951 17.63ZM12.1951 9.17C11.5365 9.17 10.8926 9.3653 10.345 9.73121C9.7974 10.0971 9.37059 10.6172 9.11855 11.2257C8.86651 11.8341 8.80056 12.5037 8.92905 13.1497C9.05754 13.7956 9.37469 14.389 9.8404 14.8547C10.3061 15.3204 10.8995 15.6375 11.5454 15.766C12.1914 15.8945 12.8609 15.8286 13.4694 15.5765C14.0779 15.3245 14.598 14.8977 14.9639 14.35C15.3298 13.8024 15.5251 13.1586 15.5251 12.5C15.5251 12.0627 15.4389 11.6297 15.2716 11.2257C15.1042 10.8216 14.859 10.4546 14.5497 10.1453C14.2405 9.83611 13.8734 9.59083 13.4694 9.42348C13.0654 9.25613 12.6324 9.17 12.1951 9.17Z" fill="white"/>
</svg>
