<svg width="24" height="24" viewBox="0 0 24 24" fill="none" xmlns="http://www.w3.org/2000/svg">
<path d="M12.4111 4.9C12.8111 4.7 13.0111 4.2 12.9111 3.8C12.8111 3.4 12.3111 3 11.8111 3C6.91108 3.1 3.11108 7.1 3.11108 12C3.11108 17 7.11108 21 12.1111 21C15.9111 21 19.2111 18.6 20.5111 15.1C20.7111 14.7 20.5111 14.2 20.1111 13.9C19.7111 13.6 19.2111 13.7 18.9111 14C17.9111 14.9 16.6111 15.4 15.2111 15.4C12.1111 15.4 9.51108 12.9 9.51108 9.7C9.51108 7.8 10.6111 5.9 12.4111 4.9ZM15.2111 17.4C15.7111 17.4 16.2111 17.4 16.6111 17.3C15.4111 18.4 13.8111 19 12.1111 19C8.21108 19 5.11108 15.9 5.11108 12C5.11108 9.5 6.51108 7.2 8.61108 6C7.91108 7.1 7.61108 8.4 7.61108 9.8C7.51108 14 11.0111 17.4 15.2111 17.4Z" fill="white"/>
</svg>
