<svg width="46" height="56" viewBox="0 0 46 56" fill="none" xmlns="http://www.w3.org/2000/svg">
<path d="M46 46C46 46.5417 45.8021 47.0104 45.4062 47.4062C45.0104 47.8021 44.5417 48 44 48H29.5625C29.5833 48.3542 29.6458 49.2656 29.75 50.7344C29.8542 52.2031 29.9062 53.3333 29.9062 54.125C29.9062 54.6458 29.7188 55.0885 29.3438 55.4531C28.9688 55.8177 28.5208 56 28 56H18C17.4792 56 17.0312 55.8177 16.6562 55.4531C16.2812 55.0885 16.0938 54.6458 16.0938 54.125C16.0938 53.3333 16.1458 52.2031 16.25 50.7344C16.3542 49.2656 16.4167 48.3542 16.4375 48H2C1.45833 48 0.989583 47.8021 0.59375 47.4062C0.197917 47.0104 0 46.5417 0 46C0 45.4583 0.197917 44.9896 0.59375 44.5938L13.1562 32H6C5.45833 32 4.98958 31.8021 4.59375 31.4062C4.19792 31.0104 4 30.5417 4 30C4 29.4583 4.19792 28.9896 4.59375 28.5938L17.1562 16H11C10.4583 16 9.98958 15.8021 9.59375 15.4062C9.19792 15.0104 9 14.5417 9 14C9 13.4583 9.19792 12.9896 9.59375 12.5938L21.5938 0.59375C21.9896 0.197917 22.4583 0 23 0C23.5417 0 24.0104 0.197917 24.4062 0.59375L36.4062 12.5938C36.8021 12.9896 37 13.4583 37 14C37 14.5417 36.8021 15.0104 36.4062 15.4062C36.0104 15.8021 35.5417 16 35 16H28.8438L41.4062 28.5938C41.8021 28.9896 42 29.4583 42 30C42 30.5417 41.8021 31.0104 41.4062 31.4062C41.0104 31.8021 40.5417 32 40 32H32.8438L45.4062 44.5938C45.8021 44.9896 46 45.4583 46 46Z" fill="white"/>
</svg>
